<?xml version="1.0" encoding="UTF-8" standalone="no"?><!DOCTYPE svg PUBLIC "-//W3C//DTD SVG 1.1//EN" "http://www.w3.org/Graphics/SVG/1.1/DTD/svg11.dtd"><svg width="100%" height="100%" viewBox="0 0 270 180" version="1.1" xmlns="http://www.w3.org/2000/svg" xmlns:xlink="http://www.w3.org/1999/xlink" xml:space="preserve" xmlns:serif="http://www.serif.com/" style="fill-rule:evenodd;clip-rule:evenodd;stroke-linejoin:round;stroke-miterlimit:2;"><g><rect x="0" y="0" width="270" height="180" style="fill:#039;"/><g transform="matrix(0.726697,0,0,0.726697,2.52075,57.1584)"><g transform="matrix(86.4991,0,0,86.4991,24.7001,38.2529)"><path d="M0.077,0l0,-0.716l0.247,0c0.055,0 0.098,0.004 0.127,0.01c0.041,0.01 0.076,0.027 0.105,0.052c0.038,0.032 0.066,0.072 0.085,0.122c0.019,0.05 0.028,0.106 0.028,0.17c0,0.055 -0.006,0.103 -0.019,0.145c-0.013,0.042 -0.029,0.076 -0.049,0.104c-0.02,0.027 -0.042,0.049 -0.065,0.065c-0.024,0.016 -0.052,0.028 -0.086,0.036c-0.033,0.008 -0.071,0.012 -0.115,0.012l-0.258,0Zm0.095,-0.084l0.153,0c0.047,0 0.084,-0.005 0.111,-0.014c0.027,-0.008 0.048,-0.021 0.064,-0.037c0.022,-0.022 0.04,-0.052 0.052,-0.09c0.013,-0.038 0.019,-0.084 0.019,-0.138c0,-0.075 -0.012,-0.133 -0.037,-0.173c-0.024,-0.04 -0.054,-0.067 -0.089,-0.081c-0.026,-0.009 -0.066,-0.014 -0.123,-0.014l-0.15,0l0,0.547Z" style="fill:#fc0;fill-opacity:0.19;fill-rule:nonzero;"/></g><g transform="matrix(86.4991,0,0,86.4991,87.167,38.2529)"><path d="M0.045,-0.23l0.089,-0.008c0.005,0.036 0.014,0.065 0.03,0.088c0.015,0.023 0.039,0.042 0.072,0.056c0.032,0.014 0.069,0.021 0.11,0.021c0.036,0 0.068,-0.005 0.095,-0.016c0.028,-0.011 0.049,-0.025 0.062,-0.044c0.014,-0.019 0.02,-0.039 0.02,-0.061c0,-0.023 -0.006,-0.042 -0.019,-0.059c-0.013,-0.017 -0.035,-0.031 -0.065,-0.042c-0.019,-0.008 -0.061,-0.02 -0.127,-0.035c-0.066,-0.016 -0.112,-0.031 -0.138,-0.045c-0.034,-0.018 -0.06,-0.04 -0.077,-0.067c-0.016,-0.026 -0.025,-0.056 -0.025,-0.089c0,-0.036 0.011,-0.07 0.031,-0.101c0.021,-0.031 0.05,-0.055 0.09,-0.072c0.039,-0.016 0.083,-0.024 0.131,-0.024c0.053,0 0.1,0.009 0.141,0.026c0.04,0.017 0.071,0.042 0.093,0.075c0.022,0.033 0.034,0.071 0.035,0.113l-0.091,0.007c-0.004,-0.046 -0.021,-0.08 -0.049,-0.103c-0.028,-0.023 -0.07,-0.035 -0.125,-0.035c-0.057,0 -0.099,0.011 -0.125,0.032c-0.026,0.021 -0.039,0.046 -0.039,0.076c0,0.026 0.009,0.047 0.027,0.063c0.019,0.017 0.066,0.034 0.143,0.051c0.077,0.018 0.13,0.033 0.159,0.046c0.041,0.019 0.072,0.044 0.092,0.073c0.02,0.03 0.03,0.063 0.03,0.102c0,0.038 -0.011,0.074 -0.033,0.108c-0.022,0.033 -0.053,0.059 -0.094,0.078c-0.041,0.019 -0.087,0.028 -0.138,0.028c-0.065,0 -0.119,-0.009 -0.163,-0.028c-0.044,-0.019 -0.078,-0.047 -0.103,-0.085c-0.025,-0.038 -0.038,-0.081 -0.039,-0.129Z" style="fill:#fc0;fill-opacity:0.19;fill-rule:nonzero;"/></g><g transform="matrix(86.4991,0,0,86.4991,144.861,38.2529)"><path d="M0.412,-0.281l0,-0.084l0.303,0l0,0.265c-0.046,0.038 -0.094,0.065 -0.144,0.084c-0.049,0.019 -0.1,0.028 -0.152,0.028c-0.07,0 -0.134,-0.015 -0.192,-0.045c-0.057,-0.03 -0.101,-0.074 -0.13,-0.131c-0.029,-0.057 -0.044,-0.12 -0.044,-0.19c0,-0.07 0.015,-0.135 0.044,-0.196c0.029,-0.06 0.071,-0.105 0.126,-0.134c0.054,-0.029 0.117,-0.044 0.189,-0.044c0.051,0 0.098,0.008 0.14,0.025c0.042,0.017 0.075,0.04 0.098,0.07c0.024,0.03 0.042,0.069 0.055,0.117l-0.086,0.024c-0.011,-0.037 -0.024,-0.065 -0.04,-0.086c-0.016,-0.021 -0.039,-0.038 -0.068,-0.05c-0.03,-0.013 -0.063,-0.019 -0.099,-0.019c-0.043,0 -0.081,0.007 -0.112,0.02c-0.032,0.013 -0.057,0.03 -0.077,0.052c-0.019,0.021 -0.034,0.045 -0.045,0.071c-0.018,0.044 -0.027,0.092 -0.027,0.144c0,0.063 0.011,0.117 0.033,0.16c0.022,0.043 0.054,0.075 0.096,0.096c0.042,0.02 0.086,0.031 0.134,0.031c0.041,0 0.081,-0.008 0.12,-0.024c0.039,-0.016 0.068,-0.033 0.089,-0.05l0,-0.134l-0.211,0Z" style="fill:#fc0;fill-opacity:0.19;fill-rule:nonzero;"/></g><g transform="matrix(86.4991,0,0,86.4991,212.143,38.2529)"><path d="M0.282,0l-0.278,-0.716l0.103,0l0.186,0.52c0.015,0.042 0.027,0.081 0.038,0.117c0.011,-0.039 0.023,-0.078 0.038,-0.117l0.194,-0.52l0.096,0l-0.28,0.716l-0.097,0Z" style="fill:#fc0;fill-opacity:0.19;fill-rule:nonzero;"/></g><g transform="matrix(86.4991,0,0,86.4991,269.837,38.2529)"><path d="M0.048,-0.349c0,-0.118 0.032,-0.211 0.096,-0.279c0.064,-0.067 0.146,-0.101 0.247,-0.101c0.066,0 0.126,0.016 0.179,0.048c0.053,0.031 0.093,0.075 0.121,0.132c0.028,0.056 0.042,0.12 0.042,0.192c0,0.073 -0.015,0.138 -0.044,0.195c-0.029,0.057 -0.071,0.101 -0.125,0.13c-0.053,0.029 -0.111,0.044 -0.173,0.044c-0.068,0 -0.128,-0.016 -0.181,-0.049c-0.053,-0.032 -0.093,-0.077 -0.121,-0.133c-0.027,-0.056 -0.041,-0.116 -0.041,-0.179Zm0.098,0.002c0,0.086 0.023,0.154 0.07,0.204c0.046,0.049 0.104,0.074 0.174,0.074c0.071,0 0.13,-0.025 0.176,-0.075c0.046,-0.05 0.069,-0.121 0.069,-0.213c0,-0.059 -0.01,-0.11 -0.029,-0.153c-0.02,-0.043 -0.049,-0.077 -0.087,-0.101c-0.038,-0.024 -0.08,-0.036 -0.127,-0.036c-0.067,0 -0.125,0.023 -0.173,0.069c-0.049,0.046 -0.073,0.123 -0.073,0.231Z" style="fill:#fc0;fill-opacity:0.19;fill-rule:nonzero;"/></g><g transform="matrix(86.4991,0,0,86.4991,55.9547,127.582)"><path d="M0.412,-0.281l0,-0.084l0.303,0l0,0.265c-0.046,0.038 -0.094,0.065 -0.144,0.084c-0.049,0.019 -0.1,0.028 -0.152,0.028c-0.07,0 -0.134,-0.015 -0.192,-0.045c-0.057,-0.03 -0.101,-0.074 -0.13,-0.131c-0.029,-0.057 -0.044,-0.12 -0.044,-0.19c0,-0.07 0.015,-0.135 0.044,-0.196c0.029,-0.06 0.071,-0.105 0.126,-0.134c0.054,-0.029 0.117,-0.044 0.189,-0.044c0.051,0 0.098,0.008 0.14,0.025c0.042,0.017 0.075,0.04 0.098,0.07c0.024,0.03 0.042,0.069 0.055,0.117l-0.086,0.024c-0.011,-0.037 -0.024,-0.065 -0.04,-0.086c-0.016,-0.021 -0.039,-0.038 -0.068,-0.05c-0.03,-0.013 -0.063,-0.019 -0.099,-0.019c-0.043,0 -0.081,0.007 -0.112,0.02c-0.032,0.013 -0.057,0.03 -0.077,0.052c-0.019,0.021 -0.034,0.045 -0.045,0.071c-0.018,0.044 -0.027,0.092 -0.027,0.144c0,0.063 0.011,0.117 0.033,0.16c0.022,0.043 0.054,0.075 0.096,0.096c0.042,0.02 0.086,0.031 0.134,0.031c0.041,0 0.081,-0.008 0.12,-0.024c0.039,-0.016 0.068,-0.033 0.089,-0.05l0,-0.134l-0.211,0Z" style="fill:#fc0;fill-opacity:0.19;fill-rule:nonzero;"/></g><g transform="matrix(86.4991,0,0,86.4991,123.236,127.582)"><path d="M0.077,0l0,-0.716l0.247,0c0.055,0 0.098,0.004 0.127,0.01c0.041,0.01 0.076,0.027 0.105,0.052c0.038,0.032 0.066,0.072 0.085,0.122c0.019,0.05 0.028,0.106 0.028,0.17c0,0.055 -0.006,0.103 -0.019,0.145c-0.013,0.042 -0.029,0.076 -0.049,0.104c-0.02,0.027 -0.042,0.049 -0.065,0.065c-0.024,0.016 -0.052,0.028 -0.086,0.036c-0.033,0.008 -0.071,0.012 -0.115,0.012l-0.258,0Zm0.095,-0.084l0.153,0c0.047,0 0.084,-0.005 0.111,-0.014c0.027,-0.008 0.048,-0.021 0.064,-0.037c0.022,-0.022 0.04,-0.052 0.052,-0.09c0.013,-0.038 0.019,-0.084 0.019,-0.138c0,-0.075 -0.012,-0.133 -0.037,-0.173c-0.024,-0.04 -0.054,-0.067 -0.089,-0.081c-0.026,-0.009 -0.066,-0.014 -0.123,-0.014l-0.15,0l0,0.547Z" style="fill:#fc0;fill-opacity:0.19;fill-rule:nonzero;"/></g><g transform="matrix(86.4991,0,0,86.4991,185.703,127.582)"><path d="M0.077,0l0,-0.716l0.27,0c0.048,0 0.084,0.002 0.109,0.007c0.035,0.006 0.065,0.017 0.088,0.033c0.024,0.017 0.043,0.04 0.058,0.07c0.014,0.029 0.022,0.062 0.022,0.097c0,0.061 -0.02,0.113 -0.059,0.155c-0.038,0.042 -0.108,0.063 -0.21,0.063l-0.183,0l0,0.291l-0.095,0Zm0.095,-0.375l0.185,0c0.061,0 0.105,-0.012 0.13,-0.035c0.026,-0.022 0.039,-0.055 0.039,-0.096c0,-0.03 -0.008,-0.055 -0.023,-0.077c-0.015,-0.021 -0.035,-0.035 -0.06,-0.042c-0.016,-0.004 -0.045,-0.006 -0.088,-0.006l-0.183,0l0,0.256Z" style="fill:#fc0;fill-opacity:0.19;fill-rule:nonzero;"/></g><g transform="matrix(86.4991,0,0,86.4991,243.398,127.582)"><path d="M0.079,0l0,-0.716l0.317,0c0.064,0 0.112,0.007 0.146,0.019c0.033,0.013 0.059,0.036 0.079,0.069c0.02,0.032 0.03,0.068 0.03,0.107c0,0.051 -0.017,0.094 -0.049,0.129c-0.033,0.035 -0.084,0.057 -0.153,0.066c0.025,0.012 0.044,0.024 0.057,0.036c0.028,0.025 0.054,0.057 0.079,0.095l0.124,0.195l-0.119,0l-0.094,-0.149c-0.028,-0.043 -0.051,-0.076 -0.069,-0.099c-0.018,-0.022 -0.034,-0.038 -0.048,-0.047c-0.014,-0.01 -0.028,-0.016 -0.043,-0.019c-0.011,-0.003 -0.028,-0.004 -0.053,-0.004l-0.11,0l0,0.318l-0.094,0Zm0.094,-0.4l0.204,0c0.043,0 0.077,-0.004 0.102,-0.013c0.024,-0.009 0.042,-0.024 0.055,-0.043c0.013,-0.02 0.019,-0.041 0.019,-0.065c0,-0.033 -0.012,-0.061 -0.037,-0.083c-0.024,-0.022 -0.063,-0.033 -0.116,-0.033l-0.227,0l0,0.237Z" style="fill:#fc0;fill-opacity:0.19;fill-rule:nonzero;"/></g></g><path d="M135,20l2.245,6.91l7.265,0l-5.877,4.27l2.245,6.91l-5.878,-4.27l-5.878,4.27l2.245,-6.91l-5.878,-4.27l7.266,0l2.245,-6.91Z" style="fill:#fc0;fill-rule:nonzero;"/><path d="M187,110l2.245,6.91l7.265,0l-5.877,4.27l2.245,6.91l-5.878,-4.27l-5.878,4.27l2.245,-6.91l-5.878,-4.27l7.266,0l2.245,-6.91Z" style="fill:#fc0;fill-rule:nonzero;"/><path d="M135,140l2.245,6.91l7.265,0l-5.877,4.27l2.245,6.91l-5.878,-4.27l-5.878,4.27l2.245,-6.91l-5.878,-4.27l7.266,0l2.245,-6.91Z" style="fill:#fc0;fill-rule:nonzero;"/><path d="M195,80l2.245,6.91l7.265,0l-5.877,4.27l2.245,6.91l-5.878,-4.27l-5.878,4.27l2.245,-6.91l-5.878,-4.27l7.266,0l2.245,-6.91Z" style="fill:#fc0;fill-rule:nonzero;"/><path d="M75,80l2.245,6.91l7.265,0l-5.877,4.27l2.245,6.91l-5.878,-4.27l-5.878,4.27l2.245,-6.91l-5.878,-4.27l7.266,0l2.245,-6.91Z" style="fill:#fc0;fill-rule:nonzero;"/><path d="M165,28l2.245,6.91l7.265,0l-5.877,4.27l2.245,6.91l-5.878,-4.27l-5.878,4.27l2.245,-6.91l-5.878,-4.27l7.266,0l2.245,-6.91Z" style="fill:#fc0;fill-rule:nonzero;"/><path d="M105,28l2.245,6.91l7.265,0l-5.877,4.27l2.245,6.91l-5.878,-4.27l-5.878,4.27l2.245,-6.91l-5.878,-4.27l7.266,0l2.245,-6.91Z" style="fill:#fc0;fill-rule:nonzero;"/><path d="M105,132l2.245,6.91l7.265,0l-5.877,4.27l2.245,6.91l-5.878,-4.27l-5.878,4.27l2.245,-6.91l-5.878,-4.27l7.266,0l2.245,-6.91Z" style="fill:#fc0;fill-rule:nonzero;"/><path d="M165,132l2.245,6.91l7.265,0l-5.877,4.27l2.245,6.91l-5.878,-4.27l-5.878,4.27l2.245,-6.91l-5.878,-4.27l7.266,0l2.245,-6.91Z" style="fill:#fc0;fill-rule:nonzero;"/><path d="M187,50l2.245,6.91l7.265,0l-5.877,4.27l2.245,6.91l-5.878,-4.27l-5.878,4.27l2.245,-6.91l-5.878,-4.27l7.266,0l2.245,-6.91Z" style="fill:#fc0;fill-rule:nonzero;"/><path d="M83,50l2.245,6.91l7.265,0l-5.877,4.27l2.245,6.91l-5.878,-4.27l-5.878,4.27l2.245,-6.91l-5.878,-4.27l7.266,0l2.245,-6.91Z" style="fill:#fc0;fill-rule:nonzero;"/><path d="M83,110l2.245,6.91l7.265,0l-5.877,4.27l2.245,6.91l-5.878,-4.27l-5.878,4.27l2.245,-6.91l-5.878,-4.27l7.266,0l2.245,-6.91Z" style="fill:#fc0;fill-rule:nonzero;"/><path d="M124.601,104.855l4.482,-0.644c0.462,2.146 1.196,3.652 2.203,4.519c1.007,0.866 2.377,1.3 4.11,1.3c1.684,0 3,-0.429 3.949,-1.288c0.949,-0.858 1.424,-1.865 1.424,-3.02c0,-0.842 -0.297,-1.618 -0.892,-2.328c-1.023,-1.237 -3.829,-3.259 -8.417,-6.065c-2.443,-1.502 -4.148,-2.678 -5.113,-3.529c-0.966,-0.85 -1.754,-1.852 -2.365,-3.008c-0.61,-1.155 -0.916,-2.36 -0.916,-3.614c0,-1.585 0.495,-3.021 1.486,-4.308c0.99,-1.288 2.352,-2.188 4.085,-2.699c-1.172,-1.123 -1.997,-2.158 -2.476,-3.107c-0.479,-0.949 -0.718,-1.96 -0.718,-3.033c0,-2.113 0.825,-3.945 2.476,-5.497c1.651,-1.551 3.838,-2.327 6.561,-2.327c3.087,0 5.496,0.734 7.23,2.203c1.733,1.469 2.773,3.599 3.119,6.388l-4.63,0.471c-0.346,-2.014 -0.953,-3.417 -1.819,-4.209c-0.867,-0.793 -2.035,-1.189 -3.504,-1.189c-1.518,0 -2.744,0.409 -3.676,1.226c-0.933,0.817 -1.399,1.72 -1.399,2.711c0,0.858 0.297,1.65 0.891,2.377c0.924,1.122 3.45,2.938 7.576,5.447c2.592,1.584 4.341,2.748 5.249,3.491c1.172,0.99 2.034,2.013 2.587,3.07c0.553,1.056 0.83,2.203 0.83,3.441c0,1.865 -0.603,3.458 -1.808,4.778c-0.693,0.76 -1.964,1.527 -3.813,2.303c1.321,1.007 2.307,2.088 2.959,3.243c0.652,1.156 0.978,2.394 0.978,3.714c0,1.453 -0.413,2.827 -1.238,4.123c-0.825,1.295 -2.014,2.286 -3.565,2.971c-1.552,0.685 -3.227,1.027 -5.026,1.027c-3.153,0 -5.653,-0.788 -7.502,-2.364c-1.849,-1.577 -2.955,-3.768 -3.318,-6.574Zm14.484,-7.774c1.222,-0.627 2.134,-1.358 2.736,-2.191c0.602,-0.834 0.904,-1.647 0.904,-2.439c0,-0.941 -0.429,-1.931 -1.288,-2.971c-0.875,-1.04 -2.731,-2.435 -5.57,-4.184c-2.262,-1.387 -3.945,-2.526 -5.051,-3.417c-1.337,0.759 -2.29,1.519 -2.86,2.278c-0.569,0.759 -0.854,1.601 -0.854,2.525c0,1.04 0.38,2.031 1.139,2.971c0.759,0.941 2.467,2.196 5.125,3.764c2.212,1.304 4.118,2.525 5.719,3.664Z" style="fill:#fc0;fill-rule:nonzero;"/></g></svg>